<?xml version="1.0" standalone="no"?><!DOCTYPE svg PUBLIC "-//W3C//DTD SVG 1.1//EN" "http://www.w3.org/Graphics/SVG/1.1/DTD/svg11.dtd"><svg t="1555603802059" class="icon" style="" viewBox="0 0 1024 1024" version="1.1" xmlns="http://www.w3.org/2000/svg" p-id="3099" xmlns:xlink="http://www.w3.org/1999/xlink" width="14" height="14"><defs><style type="text/css"></style></defs><path d="M712.410654 355.844064c58.705239 40.461457 123.551949 64.304816 201.58476 64.304816V281.785147c-115.604163 0-204.1136-69.001235-204.113601-178.825189h-145.950255c0 6.502734 1.625684-9.754101 1.625683-1.083789l-1.445052 633.83595c-9.934733 63.762921-67.917446 112.714059-137.821838 112.352795-76.768389-0.361263-138.544364-59.427765-138.363733-132.222261s54.370083-121.926266 131.138473-121.565003c21.856412 0 46.602928 13.005468 65.027342 21.675781l-0.361263-164.735932c-19.688834-4.154525-34.681249-6.322103-55.634504-6.502734-158.233198-0.541895-287.023461 120.481214-287.745987 270.585994-0.541895 150.10478 127.164579 272.211678 285.397778 272.753572 152.633621 0.541895 278.53378-112.533427 287.02346-255.412948" fill="#ffffff" p-id="3100"></path><path d="M681.342036 323.691656c58.524608 42.629035 130.777209 67.736814 208.810019 67.736815V245.658846c-115.604163 0-209.351914-93.747751-209.351914-209.351914h-145.950256c0 6.863997-0.180632 10.657259-0.180631 19.688834l-1.445052 667.975305c-9.934733 67.19492-67.917446 118.674899-137.821838 118.494267-76.587758-0.361263-138.544364-62.679132-138.183101-139.26689 0.361263-76.587758 62.679132-138.544364 139.26689-138.183101 21.856412 0 42.629035 5.238314 61.053448 14.45052l0.541895-155.162463c-19.688834-4.335156-40.100194-6.683366-61.053449-6.863997C238.975481 416.897513 110.185218 544.423355 109.643323 702.656553c-0.541895 158.052567 126.983948 286.842829 285.217146 287.384724 152.633621 0.541895 278.353149-118.674899 286.84283-269.140942" fill="#ffffff" p-id="3101"></path></svg>