<?xml version="1.0" standalone="no"?><!DOCTYPE svg PUBLIC "-//W3C//DTD SVG 1.1//EN" "http://www.w3.org/Graphics/SVG/1.1/DTD/svg11.dtd"><svg t="1555603506218" class="icon" style="" viewBox="0 0 1024 1024" version="1.1" xmlns="http://www.w3.org/2000/svg" p-id="2189" xmlns:xlink="http://www.w3.org/1999/xlink" width="24" height="24"><defs><style type="text/css"></style></defs><path d="M95.83746 426.890159H25.742222c6.095238 91.550476-16.253968 160.954921-16.253968 160.95492l37.587302 68.957461c49.777778-21.333333 48.761905-229.912381 48.761904-229.912381zM323.433651 426.890159h-70.135873s-1.015873 208.579048 48.802539 229.912381l37.587302-68.957461s-22.349206-69.404444-16.253968-160.95492zM140.048254 636.647619h-44.210794c0 51.728254 43.68254 56.279365 43.68254 56.279365h22.349206c44.860952 0 46.730159-51.36254 46.730159-51.36254v-306.265396h-68.551111v301.348571zM375.893333 489.955556h45.673651l-34.824127 71.233015s-20.31746 40.025397 12.190476 41.36635h75.865397l30.313651-55.100953h-37.871746c-4.835556 0-7.964444-5.12-5.770159-9.427301l56.685714-111.136508h-65.706666l-3.900953 7.964444h-4.347936c-4.835556 0-7.964444-5.12-5.770159-9.427301l47.217778-90.128254h-65.706667l-56.23873 113.290158s-20.31746 40.025397 12.190476 41.36635zM385.889524 624.782222s-8.370794 0.772063-13.978413-4.835555l-34.011428 65.625396s5.566984 7.639365 17.026031 7.639366h84.317461l36.043174-68.429207h-89.396825z" p-id="2190" fill="#ffffff"></path><path d="M640.75581 426.890159h43.312761v-69.892064h-155.103492v69.892064h44.048254v200.086349h-65.015873l-32.711111 65.950476h231.172064v-65.950476h-65.702603z" p-id="2191" fill="#ffffff"></path><path d="M840.553651 425.142857h24.096508a10.40254 10.40254 0 0 1 10.402539 10.443175v42.829206h-34.499047v-53.272381z m110.896762 53.272381h-7.964445v-45.186032c0-42.300952-34.255238-76.596825-76.515555-76.596825h-26.412699v-21.333333h-67.047619v21.333333h-42.097778v68.510476h42.097778v53.272381h-67.047619v68.510476h67.047619v146.00127h67.047619v-146.00127h92.281905a16.457143 16.457143 0 0 1 16.416508 16.457143v71.964445h-63.959365c0 31.817143 25.76254 57.579683 57.539048 57.579682h17.310476c31.776508 0 57.539048-25.76254 57.539047-57.579682v-90.615873c-0.004063-36.612063-29.663492-66.31619-66.23492-66.316191z" p-id="2192" fill="#ffffff"></path><path d="M1016.665397 390.23746c0-18.326349-14.872381-33.239365-33.19873-33.239365s-33.19873 14.913016-33.19873 33.239365v33.239365h33.19873c18.326349 0 33.19873-14.872381 33.19873-33.239365z" p-id="2193" fill="#ffffff"></path></svg>